<mxfile host="65bd71144e">
    <diagram id="SHV9fIJOGczd_sz9wFxz" name="第 1 页">
        <mxGraphModel dx="659" dy="519" grid="0" gridSize="10" guides="1" tooltips="1" connect="1" arrows="1" fold="1" page="1" pageScale="1" pageWidth="1654" pageHeight="1169" background="none" math="0" shadow="0">
            <root>
                <mxCell id="0"/>
                <mxCell id="1" parent="0"/>
                <mxCell id="11" value="" style="rounded=1;whiteSpace=wrap;html=1;labelBackgroundColor=#000000;fontColor=#FFFFFF;strokeColor=#000000;fillColor=none;" vertex="1" parent="1">
                    <mxGeometry x="420" y="257.92" width="680" height="380" as="geometry"/>
                </mxCell>
                <mxCell id="106" value="" style="rounded=0;whiteSpace=wrap;html=1;shadow=0;labelBackgroundColor=none;fontColor=#000000;strokeColor=#000000;fillColor=none;" vertex="1" parent="1">
                    <mxGeometry x="760" y="257.92" width="180" height="50" as="geometry"/>
                </mxCell>
                <mxCell id="2" value="&lt;font color=&quot;#ffffff&quot;&gt;M&lt;/font&gt;" style="rounded=1;whiteSpace=wrap;html=1;strokeColor=#000000;fillColor=#000000;" vertex="1" parent="1">
                    <mxGeometry x="195" y="90" width="60" height="30" as="geometry"/>
                </mxCell>
                <mxCell id="3" style="edgeStyle=none;html=1;exitX=0.5;exitY=0;exitDx=0;exitDy=0;entryX=0.5;entryY=1;entryDx=0;entryDy=0;" edge="1" parent="1" source="4" target="2">
                    <mxGeometry relative="1" as="geometry"/>
                </mxCell>
                <mxCell id="4" value="P" style="rounded=1;whiteSpace=wrap;html=1;fillColor=#FFFF00;" vertex="1" parent="1">
                    <mxGeometry x="170" y="140" width="110" height="30" as="geometry"/>
                </mxCell>
                <mxCell id="5" style="edgeStyle=none;html=1;exitX=1;exitY=0;exitDx=0;exitDy=0;entryX=0.25;entryY=1;entryDx=0;entryDy=0;" edge="1" parent="1" source="6" target="4">
                    <mxGeometry relative="1" as="geometry"/>
                </mxCell>
                <mxCell id="6" value="G" style="ellipse;whiteSpace=wrap;html=1;aspect=fixed;fillColor=#00CC00;" vertex="1" parent="1">
                    <mxGeometry x="150" y="190" width="40" height="40" as="geometry"/>
                </mxCell>
                <mxCell id="7" style="edgeStyle=none;html=1;exitX=0.5;exitY=0;exitDx=0;exitDy=0;entryX=0.5;entryY=1;entryDx=0;entryDy=0;" edge="1" parent="1" source="8" target="4">
                    <mxGeometry relative="1" as="geometry"/>
                </mxCell>
                <mxCell id="8" value="G" style="ellipse;whiteSpace=wrap;html=1;aspect=fixed;fillColor=#00CC00;" vertex="1" parent="1">
                    <mxGeometry x="205" y="190" width="40" height="40" as="geometry"/>
                </mxCell>
                <mxCell id="9" style="edgeStyle=none;html=1;exitX=0;exitY=0;exitDx=0;exitDy=0;entryX=0.75;entryY=1;entryDx=0;entryDy=0;" edge="1" parent="1" source="10" target="4">
                    <mxGeometry relative="1" as="geometry"/>
                </mxCell>
                <mxCell id="10" value="G" style="ellipse;whiteSpace=wrap;html=1;aspect=fixed;fillColor=#00CC00;" vertex="1" parent="1">
                    <mxGeometry x="260" y="190" width="40" height="40" as="geometry"/>
                </mxCell>
                <mxCell id="24" value="" style="group" vertex="1" connectable="0" parent="1">
                    <mxGeometry x="455" y="330" width="185" height="207.5" as="geometry"/>
                </mxCell>
                <mxCell id="12" value="P" style="rounded=1;whiteSpace=wrap;html=1;fillColor=#FFFF00;" vertex="1" parent="24">
                    <mxGeometry x="10" width="110" height="30" as="geometry"/>
                </mxCell>
                <mxCell id="19" value="" style="group;shadow=0;strokeColor=#000000;" vertex="1" connectable="0" parent="24">
                    <mxGeometry x="40" y="70" width="50" height="137.5" as="geometry"/>
                </mxCell>
                <mxCell id="15" value="" style="rounded=0;whiteSpace=wrap;html=1;labelBackgroundColor=#000000;fontColor=#FFFFFF;strokeColor=#009900;fillColor=none;rotation=90;" vertex="1" parent="19">
                    <mxGeometry x="-43.75" y="43.75" width="137.5" height="50" as="geometry"/>
                </mxCell>
                <mxCell id="16" value="G" style="ellipse;whiteSpace=wrap;html=1;aspect=fixed;fillColor=#00CC00;" vertex="1" parent="19">
                    <mxGeometry x="5" y="3.75" width="40" height="40" as="geometry"/>
                </mxCell>
                <mxCell id="17" value="G" style="ellipse;whiteSpace=wrap;html=1;aspect=fixed;fillColor=#00CC00;" vertex="1" parent="19">
                    <mxGeometry x="5" y="48.75" width="40" height="40" as="geometry"/>
                </mxCell>
                <mxCell id="18" value="G" style="ellipse;whiteSpace=wrap;html=1;aspect=fixed;fillColor=#00CC00;" vertex="1" parent="19">
                    <mxGeometry x="5" y="93.75" width="40" height="40" as="geometry"/>
                </mxCell>
                <mxCell id="23" value="本&lt;br&gt;地&lt;br&gt;队&lt;br&gt;列&lt;br&gt;p.runq" style="text;html=1;strokeColor=none;fillColor=none;align=center;verticalAlign=middle;whiteSpace=wrap;rounded=0;shadow=0;labelBackgroundColor=none;fontColor=#000000;" vertex="1" parent="24">
                    <mxGeometry y="100" width="40" height="106.25" as="geometry"/>
                </mxCell>
                <mxCell id="20" style="edgeStyle=none;html=1;exitX=0;exitY=0.5;exitDx=0;exitDy=0;fontColor=#FFFFFF;entryX=0.5;entryY=1;entryDx=0;entryDy=0;" edge="1" parent="24" source="15" target="12">
                    <mxGeometry relative="1" as="geometry"/>
                </mxCell>
                <mxCell id="32" value="本&lt;br&gt;地&lt;br&gt;队&lt;br&gt;列&lt;br&gt;p.runq" style="text;html=1;strokeColor=none;fillColor=none;align=center;verticalAlign=middle;whiteSpace=wrap;rounded=0;shadow=0;labelBackgroundColor=none;fontColor=#000000;" vertex="1" parent="24">
                    <mxGeometry x="145" y="100" width="40" height="106.25" as="geometry"/>
                </mxCell>
                <mxCell id="143" style="edgeStyle=none;html=1;exitX=0;exitY=0.5;exitDx=0;exitDy=0;entryX=1;entryY=0.5;entryDx=0;entryDy=0;fontSize=12;fontColor=#FF0000;strokeColor=#FF3333;" edge="1" parent="24" source="142" target="16">
                    <mxGeometry relative="1" as="geometry"/>
                </mxCell>
                <mxCell id="142" value="&lt;font style=&quot;font-size: 12px&quot; color=&quot;#ff0000&quot;&gt;p.runnext&lt;/font&gt;" style="text;html=1;strokeColor=none;fillColor=none;align=center;verticalAlign=middle;whiteSpace=wrap;rounded=0;shadow=0;labelBackgroundColor=none;fontSize=18;fontColor=#000000;" vertex="1" parent="24">
                    <mxGeometry x="105" y="86.88" width="60" height="13.75" as="geometry"/>
                </mxCell>
                <mxCell id="25" value="" style="group" vertex="1" connectable="0" parent="1">
                    <mxGeometry x="600" y="330" width="160" height="207.5" as="geometry"/>
                </mxCell>
                <mxCell id="26" value="P" style="rounded=1;whiteSpace=wrap;html=1;fillColor=#FFFF00;" vertex="1" parent="25">
                    <mxGeometry x="10" width="110" height="30" as="geometry"/>
                </mxCell>
                <mxCell id="27" value="" style="group;shadow=0;strokeColor=#000000;" vertex="1" connectable="0" parent="25">
                    <mxGeometry x="40" y="70" width="50" height="137.5" as="geometry"/>
                </mxCell>
                <mxCell id="28" value="" style="rounded=0;whiteSpace=wrap;html=1;labelBackgroundColor=#000000;fontColor=#FFFFFF;strokeColor=#009900;fillColor=none;rotation=90;" vertex="1" parent="27">
                    <mxGeometry x="-43.75" y="43.75" width="137.5" height="50" as="geometry"/>
                </mxCell>
                <mxCell id="29" value="G" style="ellipse;whiteSpace=wrap;html=1;aspect=fixed;fillColor=#00CC00;" vertex="1" parent="27">
                    <mxGeometry x="5" y="3.75" width="40" height="40" as="geometry"/>
                </mxCell>
                <mxCell id="30" value="G" style="ellipse;whiteSpace=wrap;html=1;aspect=fixed;fillColor=#00CC00;" vertex="1" parent="27">
                    <mxGeometry x="5" y="48.75" width="40" height="40" as="geometry"/>
                </mxCell>
                <mxCell id="33" style="edgeStyle=none;html=1;exitX=0;exitY=0.5;exitDx=0;exitDy=0;fontColor=#FFFFFF;entryX=0.5;entryY=1;entryDx=0;entryDy=0;" edge="1" parent="25" source="28" target="26">
                    <mxGeometry relative="1" as="geometry"/>
                </mxCell>
                <mxCell id="141" style="edgeStyle=none;html=1;exitX=0;exitY=0.5;exitDx=0;exitDy=0;entryX=1;entryY=0.5;entryDx=0;entryDy=0;fontSize=12;fontColor=#FF0000;strokeColor=#FF3333;" edge="1" parent="25" source="140" target="29">
                    <mxGeometry relative="1" as="geometry"/>
                </mxCell>
                <mxCell id="140" value="&lt;font style=&quot;font-size: 12px&quot; color=&quot;#ff0000&quot;&gt;p.runnext&lt;/font&gt;" style="text;html=1;strokeColor=none;fillColor=none;align=center;verticalAlign=middle;whiteSpace=wrap;rounded=0;shadow=0;labelBackgroundColor=none;fontSize=18;fontColor=#000000;" vertex="1" parent="25">
                    <mxGeometry x="100" y="86.88" width="60" height="13.75" as="geometry"/>
                </mxCell>
                <mxCell id="35" value="" style="group" vertex="1" connectable="0" parent="1">
                    <mxGeometry x="742" y="330" width="170" height="207.5" as="geometry"/>
                </mxCell>
                <mxCell id="36" value="P(空闲)" style="rounded=1;whiteSpace=wrap;html=1;fillColor=#FFFF00;" vertex="1" parent="35">
                    <mxGeometry x="10" width="110" height="30" as="geometry"/>
                </mxCell>
                <mxCell id="37" value="" style="group;shadow=0;strokeColor=#000000;" vertex="1" connectable="0" parent="35">
                    <mxGeometry x="40" y="70" width="50" height="137.5" as="geometry"/>
                </mxCell>
                <mxCell id="38" value="" style="rounded=0;whiteSpace=wrap;html=1;labelBackgroundColor=#000000;fontColor=#FFFFFF;strokeColor=#009900;fillColor=none;rotation=90;" vertex="1" parent="37">
                    <mxGeometry x="-43.75" y="43.75" width="137.5" height="50" as="geometry"/>
                </mxCell>
                <mxCell id="42" value="本&lt;br&gt;地&lt;br&gt;队&lt;br&gt;列&lt;br&gt;p.runq" style="text;html=1;strokeColor=none;fillColor=none;align=center;verticalAlign=middle;whiteSpace=wrap;rounded=0;shadow=0;labelBackgroundColor=none;fontColor=#000000;" vertex="1" parent="35">
                    <mxGeometry y="101.25" width="40" height="106.25" as="geometry"/>
                </mxCell>
                <mxCell id="43" style="edgeStyle=none;html=1;exitX=0;exitY=0.5;exitDx=0;exitDy=0;fontColor=#FFFFFF;entryX=0.5;entryY=1;entryDx=0;entryDy=0;" edge="1" parent="35" source="38" target="36">
                    <mxGeometry relative="1" as="geometry"/>
                </mxCell>
                <mxCell id="144" value="&lt;font style=&quot;font-size: 12px&quot; color=&quot;#ff0000&quot;&gt;p.runnext==nil&lt;/font&gt;" style="text;html=1;strokeColor=none;fillColor=none;align=center;verticalAlign=middle;whiteSpace=wrap;rounded=0;shadow=0;labelBackgroundColor=none;fontSize=18;fontColor=#000000;" vertex="1" parent="35">
                    <mxGeometry x="98" y="86.88" width="72" height="13.75" as="geometry"/>
                </mxCell>
                <mxCell id="61" value="" style="rounded=0;whiteSpace=wrap;html=1;shadow=0;labelBackgroundColor=none;fontColor=#000000;strokeColor=#000000;fillColor=none;" vertex="1" parent="1">
                    <mxGeometry x="472" y="560" width="390" height="50" as="geometry"/>
                </mxCell>
                <mxCell id="62" value="G" style="ellipse;whiteSpace=wrap;html=1;aspect=fixed;fillColor=#00CC00;" vertex="1" parent="1">
                    <mxGeometry x="535" y="565" width="40" height="40" as="geometry"/>
                </mxCell>
                <mxCell id="63" value="G" style="ellipse;whiteSpace=wrap;html=1;aspect=fixed;fillColor=#00CC00;" vertex="1" parent="1">
                    <mxGeometry x="575" y="565" width="40" height="40" as="geometry"/>
                </mxCell>
                <mxCell id="64" value="G" style="ellipse;whiteSpace=wrap;html=1;aspect=fixed;fillColor=#00CC00;" vertex="1" parent="1">
                    <mxGeometry x="615" y="565" width="40" height="40" as="geometry"/>
                </mxCell>
                <mxCell id="65" value="G" style="ellipse;whiteSpace=wrap;html=1;aspect=fixed;fillColor=#00CC00;" vertex="1" parent="1">
                    <mxGeometry x="655" y="565" width="40" height="40" as="geometry"/>
                </mxCell>
                <mxCell id="66" value="G" style="ellipse;whiteSpace=wrap;html=1;aspect=fixed;fillColor=#66FFFF;" vertex="1" parent="1">
                    <mxGeometry x="695" y="565" width="40" height="40" as="geometry"/>
                </mxCell>
                <mxCell id="67" value="G" style="ellipse;whiteSpace=wrap;html=1;aspect=fixed;fillColor=#66FFFF;" vertex="1" parent="1">
                    <mxGeometry x="735" y="565" width="40" height="40" as="geometry"/>
                </mxCell>
                <mxCell id="68" value="G" style="ellipse;whiteSpace=wrap;html=1;aspect=fixed;fillColor=#66FFFF;" vertex="1" parent="1">
                    <mxGeometry x="775" y="565" width="40" height="40" as="geometry"/>
                </mxCell>
                <mxCell id="69" value="全局队列 sched.runq" style="text;html=1;strokeColor=none;fillColor=none;align=center;verticalAlign=middle;whiteSpace=wrap;rounded=0;shadow=0;labelBackgroundColor=none;fontColor=#000000;" vertex="1" parent="1">
                    <mxGeometry x="585" y="605" width="170" height="30" as="geometry"/>
                </mxCell>
                <mxCell id="74" value="" style="sketch=0;pointerEvents=1;shadow=0;dashed=0;html=1;strokeColor=none;labelPosition=center;verticalLabelPosition=bottom;verticalAlign=top;outlineConnect=0;align=center;shape=mxgraph.office.security.lock_protected;fillColor=#00CC00;labelBackgroundColor=none;fontColor=#000000;" vertex="1" parent="1">
                    <mxGeometry x="460" y="570" width="20" height="26" as="geometry"/>
                </mxCell>
                <mxCell id="80" style="edgeStyle=none;html=1;exitX=0;exitY=0.5;exitDx=0;exitDy=0;fontColor=#000000;entryX=1;entryY=0.5;entryDx=0;entryDy=0;strokeColor=#000000;" edge="1" parent="1" source="79" target="36">
                    <mxGeometry relative="1" as="geometry"/>
                </mxCell>
                <mxCell id="79" value="runtime.GOMAXPROCS(3)" style="text;html=1;strokeColor=#FFFF00;fillColor=#FFFF00;align=center;verticalAlign=middle;whiteSpace=wrap;rounded=0;shadow=0;labelBackgroundColor=none;fontColor=#000000;" vertex="1" parent="1">
                    <mxGeometry x="920" y="330" width="170" height="30" as="geometry"/>
                </mxCell>
                <mxCell id="86" style="edgeStyle=none;html=1;exitX=0.5;exitY=1;exitDx=0;exitDy=0;entryX=0.5;entryY=0;entryDx=0;entryDy=0;fontColor=#000000;strokeColor=#000000;" edge="1" parent="1" source="81" target="12">
                    <mxGeometry relative="1" as="geometry"/>
                </mxCell>
                <mxCell id="108" style="edgeStyle=none;html=1;exitX=0.5;exitY=0;exitDx=0;exitDy=0;fontColor=#000000;strokeColor=#000000;" edge="1" parent="1" source="81">
                    <mxGeometry relative="1" as="geometry">
                        <mxPoint x="520" y="250" as="targetPoint"/>
                    </mxGeometry>
                </mxCell>
                <mxCell id="81" value="&lt;font color=&quot;#ffffff&quot;&gt;M&lt;/font&gt;" style="rounded=1;whiteSpace=wrap;html=1;strokeColor=#000000;fillColor=#000000;" vertex="1" parent="1">
                    <mxGeometry x="490" y="270" width="60" height="30" as="geometry"/>
                </mxCell>
                <mxCell id="89" style="edgeStyle=none;html=1;exitX=0.5;exitY=1;exitDx=0;exitDy=0;fontColor=#000000;strokeColor=#000000;" edge="1" parent="1" source="82">
                    <mxGeometry relative="1" as="geometry">
                        <mxPoint x="802" y="330" as="targetPoint"/>
                    </mxGeometry>
                </mxCell>
                <mxCell id="110" style="edgeStyle=none;html=1;exitX=0.5;exitY=0;exitDx=0;exitDy=0;fontColor=#000000;strokeColor=#000000;" edge="1" parent="1" source="82">
                    <mxGeometry relative="1" as="geometry">
                        <mxPoint x="802" y="247.92" as="targetPoint"/>
                    </mxGeometry>
                </mxCell>
                <mxCell id="82" value="&lt;font color=&quot;#ffffff&quot;&gt;M(空闲)&lt;/font&gt;" style="rounded=1;whiteSpace=wrap;html=1;strokeColor=#000000;fillColor=#000000;" vertex="1" parent="1">
                    <mxGeometry x="772" y="267.92" width="58" height="30" as="geometry"/>
                </mxCell>
                <mxCell id="87" style="edgeStyle=none;html=1;exitX=0.5;exitY=1;exitDx=0;exitDy=0;entryX=0.5;entryY=0;entryDx=0;entryDy=0;fontColor=#000000;strokeColor=#000000;" edge="1" parent="1" source="83" target="26">
                    <mxGeometry relative="1" as="geometry"/>
                </mxCell>
                <mxCell id="109" style="edgeStyle=none;html=1;exitX=0.5;exitY=0;exitDx=0;exitDy=0;fontColor=#000000;strokeColor=#000000;entryX=0.5;entryY=1;entryDx=0;entryDy=0;" edge="1" parent="1" source="83" target="124">
                    <mxGeometry relative="1" as="geometry">
                        <mxPoint x="675" y="250" as="targetPoint"/>
                    </mxGeometry>
                </mxCell>
                <mxCell id="83" value="&lt;font color=&quot;#ffffff&quot;&gt;M&lt;/font&gt;" style="rounded=1;whiteSpace=wrap;html=1;strokeColor=#000000;fillColor=#000000;" vertex="1" parent="1">
                    <mxGeometry x="635" y="270" width="60" height="30" as="geometry"/>
                </mxCell>
                <mxCell id="85" style="edgeStyle=none;html=1;exitX=0.5;exitY=0;exitDx=0;exitDy=0;fontColor=#000000;strokeColor=#000000;entryX=0.5;entryY=1;entryDx=0;entryDy=0;" edge="1" parent="1" source="12" target="81">
                    <mxGeometry relative="1" as="geometry"/>
                </mxCell>
                <mxCell id="88" style="edgeStyle=none;html=1;exitX=0.5;exitY=0;exitDx=0;exitDy=0;entryX=0.5;entryY=1;entryDx=0;entryDy=0;fontColor=#000000;strokeColor=#000000;" edge="1" parent="1" source="26" target="83">
                    <mxGeometry relative="1" as="geometry"/>
                </mxCell>
                <mxCell id="91" value="" style="sketch=0;pointerEvents=1;shadow=0;dashed=0;html=1;strokeColor=none;labelPosition=center;verticalLabelPosition=bottom;verticalAlign=top;outlineConnect=0;align=center;shape=mxgraph.office.security.lock_unprotected;fillColor=#00CC00;labelBackgroundColor=none;fontColor=#000000;" vertex="1" parent="1">
                    <mxGeometry x="850" y="567" width="18" height="29" as="geometry"/>
                </mxCell>
                <mxCell id="111" style="edgeStyle=none;html=1;exitX=0.5;exitY=0;exitDx=0;exitDy=0;fontColor=#000000;strokeColor=#000000;" edge="1" parent="1" source="96">
                    <mxGeometry relative="1" as="geometry">
                        <mxPoint x="890" y="247.92" as="targetPoint"/>
                    </mxGeometry>
                </mxCell>
                <mxCell id="96" value="&lt;font color=&quot;#ffffff&quot;&gt;M(空闲)&lt;/font&gt;" style="rounded=1;whiteSpace=wrap;html=1;strokeColor=#000000;fillColor=#000000;" vertex="1" parent="1">
                    <mxGeometry x="860" y="267.92" width="60" height="30" as="geometry"/>
                </mxCell>
                <mxCell id="105" value="" style="curved=1;endArrow=classic;html=1;fontColor=#000000;strokeColor=#00FFFF;exitX=1;exitY=0.5;exitDx=0;exitDy=0;entryX=0.75;entryY=0;entryDx=0;entryDy=0;" edge="1" parent="1" source="68" target="38">
                    <mxGeometry width="50" height="50" relative="1" as="geometry">
                        <mxPoint x="930" y="585" as="sourcePoint"/>
                        <mxPoint x="980" y="535" as="targetPoint"/>
                        <Array as="points">
                            <mxPoint x="980" y="585"/>
                            <mxPoint x="930" y="535"/>
                        </Array>
                    </mxGeometry>
                </mxCell>
                <mxCell id="107" value="OS调度器" style="rounded=0;whiteSpace=wrap;html=1;shadow=0;labelBackgroundColor=none;fontColor=#000000;strokeColor=#000000;fillColor=#007FFF;" vertex="1" parent="1">
                    <mxGeometry x="455" y="161.25" width="500" height="40" as="geometry"/>
                </mxCell>
                <mxCell id="116" style="edgeStyle=none;html=1;exitX=0.5;exitY=1;exitDx=0;exitDy=0;entryX=0.204;entryY=0.017;entryDx=0;entryDy=0;entryPerimeter=0;fontColor=#000000;strokeColor=#000000;" edge="1" parent="1" source="112" target="107">
                    <mxGeometry relative="1" as="geometry"/>
                </mxCell>
                <mxCell id="112" value="CPU" style="rounded=1;whiteSpace=wrap;html=1;shadow=0;labelBackgroundColor=none;fontColor=#000000;strokeColor=#000000;fillColor=#007FFF;" vertex="1" parent="1">
                    <mxGeometry x="535" y="108.75" width="45" height="30" as="geometry"/>
                </mxCell>
                <mxCell id="117" style="edgeStyle=none;html=1;exitX=0.5;exitY=1;exitDx=0;exitDy=0;entryX=0.406;entryY=-0.008;entryDx=0;entryDy=0;entryPerimeter=0;fontColor=#000000;strokeColor=#000000;" edge="1" parent="1" target="107">
                    <mxGeometry relative="1" as="geometry">
                        <mxPoint x="657.5" y="138.75" as="sourcePoint"/>
                    </mxGeometry>
                </mxCell>
                <mxCell id="118" style="edgeStyle=none;html=1;exitX=0.5;exitY=1;exitDx=0;exitDy=0;entryX=0.63;entryY=0;entryDx=0;entryDy=0;entryPerimeter=0;fontColor=#000000;strokeColor=#000000;" edge="1" parent="1" target="107">
                    <mxGeometry relative="1" as="geometry">
                        <mxPoint x="769.5" y="138.75" as="sourcePoint"/>
                    </mxGeometry>
                </mxCell>
                <mxCell id="119" style="edgeStyle=none;html=1;exitX=0.5;exitY=1;exitDx=0;exitDy=0;entryX=0.836;entryY=0;entryDx=0;entryDy=0;entryPerimeter=0;fontColor=#000000;strokeColor=#000000;" edge="1" parent="1" target="107">
                    <mxGeometry relative="1" as="geometry">
                        <mxPoint x="872.5" y="138.75" as="sourcePoint"/>
                    </mxGeometry>
                </mxCell>
                <mxCell id="120" value="CPU" style="rounded=1;whiteSpace=wrap;html=1;shadow=0;labelBackgroundColor=none;fontColor=#000000;strokeColor=#000000;fillColor=#007FFF;" vertex="1" parent="1">
                    <mxGeometry x="635" y="108.75" width="45" height="30" as="geometry"/>
                </mxCell>
                <mxCell id="121" value="CPU" style="rounded=1;whiteSpace=wrap;html=1;shadow=0;labelBackgroundColor=none;fontColor=#000000;strokeColor=#000000;fillColor=#007FFF;" vertex="1" parent="1">
                    <mxGeometry x="750" y="108.75" width="45" height="30" as="geometry"/>
                </mxCell>
                <mxCell id="122" value="CPU" style="rounded=1;whiteSpace=wrap;html=1;shadow=0;labelBackgroundColor=none;fontColor=#000000;strokeColor=#000000;fillColor=#007FFF;" vertex="1" parent="1">
                    <mxGeometry x="853" y="108.75" width="45" height="30" as="geometry"/>
                </mxCell>
                <mxCell id="128" style="edgeStyle=none;html=1;exitX=0.5;exitY=0;exitDx=0;exitDy=0;fontColor=#000000;strokeColor=#000000;" edge="1" parent="1" source="123">
                    <mxGeometry relative="1" as="geometry">
                        <mxPoint x="520" y="200" as="targetPoint"/>
                    </mxGeometry>
                </mxCell>
                <mxCell id="123" value="&lt;font color=&quot;#ffffff&quot;&gt;thread&lt;/font&gt;" style="rounded=1;whiteSpace=wrap;html=1;strokeColor=#000000;fillColor=#000000;" vertex="1" parent="1">
                    <mxGeometry x="490" y="220" width="60" height="30" as="geometry"/>
                </mxCell>
                <mxCell id="129" style="edgeStyle=none;html=1;exitX=0.5;exitY=0;exitDx=0;exitDy=0;fontColor=#000000;strokeColor=#000000;" edge="1" parent="1" source="124">
                    <mxGeometry relative="1" as="geometry">
                        <mxPoint x="665" y="200" as="targetPoint"/>
                    </mxGeometry>
                </mxCell>
                <mxCell id="124" value="&lt;font color=&quot;#ffffff&quot;&gt;thread&lt;/font&gt;" style="rounded=1;whiteSpace=wrap;html=1;strokeColor=#000000;fillColor=#000000;" vertex="1" parent="1">
                    <mxGeometry x="635" y="220" width="60" height="30" as="geometry"/>
                </mxCell>
                <mxCell id="130" style="edgeStyle=none;html=1;exitX=0.5;exitY=0;exitDx=0;exitDy=0;entryX=0.704;entryY=1.052;entryDx=0;entryDy=0;entryPerimeter=0;fontColor=#000000;strokeColor=#000000;" edge="1" parent="1" source="125">
                    <mxGeometry relative="1" as="geometry">
                        <mxPoint x="802" y="201.25000000000003" as="targetPoint"/>
                    </mxGeometry>
                </mxCell>
                <mxCell id="125" value="&lt;font color=&quot;#ffffff&quot;&gt;thread&lt;/font&gt;" style="rounded=1;whiteSpace=wrap;html=1;strokeColor=#000000;fillColor=#000000;" vertex="1" parent="1">
                    <mxGeometry x="772" y="217.92" width="60" height="30" as="geometry"/>
                </mxCell>
                <mxCell id="131" style="edgeStyle=none;html=1;exitX=0.5;exitY=0;exitDx=0;exitDy=0;fontColor=#000000;strokeColor=#000000;" edge="1" parent="1" source="126">
                    <mxGeometry relative="1" as="geometry">
                        <mxPoint x="890" y="200" as="targetPoint"/>
                    </mxGeometry>
                </mxCell>
                <mxCell id="126" value="&lt;font color=&quot;#ffffff&quot;&gt;thread&lt;/font&gt;" style="rounded=1;whiteSpace=wrap;html=1;strokeColor=#000000;fillColor=#000000;" vertex="1" parent="1">
                    <mxGeometry x="860" y="217.92" width="60" height="30" as="geometry"/>
                </mxCell>
                <mxCell id="135" style="edgeStyle=none;html=1;exitX=0;exitY=0.5;exitDx=0;exitDy=0;entryX=1;entryY=0.5;entryDx=0;entryDy=0;fontColor=#000000;strokeColor=#000000;" edge="1" parent="1" source="132" target="126">
                    <mxGeometry relative="1" as="geometry"/>
                </mxCell>
                <mxCell id="132" value="&lt;font color=&quot;#ffffff&quot;&gt;内核线程(kernel thread)&lt;/font&gt;" style="text;html=1;strokeColor=#FFFF00;fillColor=#333333;align=center;verticalAlign=middle;whiteSpace=wrap;rounded=0;shadow=0;labelBackgroundColor=none;fontColor=#000000;" vertex="1" parent="1">
                    <mxGeometry x="955" y="217.92" width="140" height="30" as="geometry"/>
                </mxCell>
                <mxCell id="134" style="edgeStyle=none;html=1;entryX=0.5;entryY=1;entryDx=0;entryDy=0;fontColor=#000000;strokeColor=#000000;" edge="1" parent="1" target="82">
                    <mxGeometry relative="1" as="geometry">
                        <mxPoint x="802" y="330" as="sourcePoint"/>
                    </mxGeometry>
                </mxCell>
                <mxCell id="136" value="&lt;font style=&quot;font-size: 18px&quot; color=&quot;#000000&quot;&gt;Goroutine调度器&lt;/font&gt;" style="text;html=1;strokeColor=none;fillColor=#FF9933;align=center;verticalAlign=middle;whiteSpace=wrap;rounded=0;shadow=0;labelBackgroundColor=none;fontColor=#FFFFFF;" vertex="1" parent="1">
                    <mxGeometry x="920" y="430" width="150" height="70" as="geometry"/>
                </mxCell>
                <mxCell id="145" value="&lt;font color=&quot;#000000&quot;&gt;g0&lt;/font&gt;" style="ellipse;whiteSpace=wrap;html=1;aspect=fixed;shadow=0;labelBackgroundColor=none;fontSize=12;fontColor=#FF0000;strokeColor=#FFFFFF;fillColor=#66FFFF;" vertex="1" parent="1">
                    <mxGeometry x="530" y="272.92" width="20" height="20" as="geometry"/>
                </mxCell>
                <mxCell id="149" value="&lt;font color=&quot;#000000&quot;&gt;g0&lt;/font&gt;" style="ellipse;whiteSpace=wrap;html=1;aspect=fixed;shadow=0;labelBackgroundColor=none;fontSize=12;fontColor=#FF0000;strokeColor=#FFFFFF;fillColor=#66FFFF;" vertex="1" parent="1">
                    <mxGeometry x="675" y="272.92" width="20" height="20" as="geometry"/>
                </mxCell>
                <mxCell id="150" value="&lt;font color=&quot;#000000&quot;&gt;g0&lt;/font&gt;" style="ellipse;whiteSpace=wrap;html=1;aspect=fixed;shadow=0;labelBackgroundColor=none;fontSize=12;fontColor=#FF0000;strokeColor=#FFFFFF;fillColor=#66FFFF;" vertex="1" parent="1">
                    <mxGeometry x="817" y="272.92" width="20" height="20" as="geometry"/>
                </mxCell>
                <mxCell id="151" value="&lt;font color=&quot;#000000&quot;&gt;g0&lt;/font&gt;" style="ellipse;whiteSpace=wrap;html=1;aspect=fixed;shadow=0;labelBackgroundColor=none;fontSize=12;fontColor=#FF0000;strokeColor=#FFFFFF;fillColor=#66FFFF;" vertex="1" parent="1">
                    <mxGeometry x="910" y="272.92" width="20" height="20" as="geometry"/>
                </mxCell>
                <mxCell id="153" value="" style="rounded=0;whiteSpace=wrap;html=1;shadow=0;labelBackgroundColor=none;fontColor=#000000;strokeColor=#000000;fillColor=none;" vertex="1" parent="1">
                    <mxGeometry x="1260" y="272.92" width="270" height="50" as="geometry"/>
                </mxCell>
                <mxCell id="168" value="" style="group" vertex="1" connectable="0" parent="1">
                    <mxGeometry x="1250" y="295" width="280" height="40" as="geometry"/>
                </mxCell>
                <mxCell id="169" value="" style="group" vertex="1" connectable="0" parent="168">
                    <mxGeometry x="20" y="-17.08" width="240" height="49.99999999999994" as="geometry"/>
                </mxCell>
                <mxCell id="154" value="G" style="ellipse;whiteSpace=wrap;html=1;aspect=fixed;fillColor=#66FFFF;" vertex="1" parent="169">
                    <mxGeometry x="200" width="40" height="40" as="geometry"/>
                </mxCell>
                <mxCell id="155" value="G" style="ellipse;whiteSpace=wrap;html=1;aspect=fixed;fillColor=#66FFFF;" vertex="1" parent="169">
                    <mxGeometry x="160" width="40" height="40" as="geometry"/>
                </mxCell>
                <mxCell id="156" value="G" style="ellipse;whiteSpace=wrap;html=1;aspect=fixed;fillColor=#00CC00;" vertex="1" parent="169">
                    <mxGeometry x="80" width="40" height="40" as="geometry"/>
                </mxCell>
                <mxCell id="157" value="G" style="ellipse;whiteSpace=wrap;html=1;aspect=fixed;fillColor=#66FFFF;" vertex="1" parent="169">
                    <mxGeometry x="120" width="40" height="40" as="geometry"/>
                </mxCell>
                <mxCell id="158" value="G" style="ellipse;whiteSpace=wrap;html=1;aspect=fixed;fillColor=#00CC00;" vertex="1" parent="169">
                    <mxGeometry x="40" width="40" height="40" as="geometry"/>
                </mxCell>
                <mxCell id="159" value="G" style="ellipse;whiteSpace=wrap;html=1;aspect=fixed;fillColor=#00CC00;" vertex="1" parent="169">
                    <mxGeometry width="40" height="40" as="geometry"/>
                </mxCell>
                <mxCell id="177" value="" style="rounded=1;whiteSpace=wrap;html=1;shadow=0;labelBackgroundColor=none;fontSize=12;fillColor=none;dashed=1;strokeColor=#FF3333;glass=0;" vertex="1" parent="169">
                    <mxGeometry x="120" y="-10.000000000000057" width="120" height="60" as="geometry"/>
                </mxCell>
                <mxCell id="170" value="" style="group;shadow=0;strokeColor=#000000;rotation=90;" vertex="1" connectable="0" parent="1">
                    <mxGeometry x="1369.46" y="243.46" width="50" height="274.34" as="geometry"/>
                </mxCell>
                <mxCell id="172" value="schedt.runq" style="text;html=1;strokeColor=none;fillColor=none;align=center;verticalAlign=middle;whiteSpace=wrap;rounded=0;shadow=0;labelBackgroundColor=none;fontSize=12;fontColor=#000000;" vertex="1" parent="1">
                    <mxGeometry x="1180" y="282.92" width="70" height="27.08" as="geometry"/>
                </mxCell>
                <mxCell id="173" value="p.runq" style="text;html=1;strokeColor=none;fillColor=none;align=center;verticalAlign=middle;whiteSpace=wrap;rounded=0;shadow=0;labelBackgroundColor=none;fontSize=12;fontColor=#000000;" vertex="1" parent="1">
                    <mxGeometry x="1170" y="367.09000000000003" width="70" height="27.08" as="geometry"/>
                </mxCell>
                <mxCell id="174" value="G" style="ellipse;whiteSpace=wrap;html=1;aspect=fixed;fillColor=#66FFFF;" vertex="1" parent="1">
                    <mxGeometry x="1280" y="360" width="40" height="40" as="geometry"/>
                </mxCell>
                <mxCell id="175" value="G" style="ellipse;whiteSpace=wrap;html=1;aspect=fixed;fillColor=#66FFFF;" vertex="1" parent="1">
                    <mxGeometry x="1320" y="360" width="40" height="40" as="geometry"/>
                </mxCell>
                <mxCell id="176" value="G" style="ellipse;whiteSpace=wrap;html=1;aspect=fixed;fillColor=#66FFFF;" vertex="1" parent="1">
                    <mxGeometry x="1360" y="360" width="40" height="40" as="geometry"/>
                </mxCell>
                <mxCell id="178" value="" style="rounded=1;whiteSpace=wrap;html=1;shadow=0;labelBackgroundColor=none;fontSize=12;fillColor=none;dashed=1;strokeColor=#FF3333;glass=0;" vertex="1" parent="1">
                    <mxGeometry x="1280" y="349.99999999999994" width="120" height="60" as="geometry"/>
                </mxCell>
                <mxCell id="179" style="edgeStyle=none;html=1;exitX=0.5;exitY=1;exitDx=0;exitDy=0;entryX=0.5;entryY=0;entryDx=0;entryDy=0;fontSize=12;fontColor=#000000;strokeColor=#FF3333;" edge="1" parent="1" source="177" target="178">
                    <mxGeometry relative="1" as="geometry"/>
                </mxCell>
                <mxCell id="181" value="" style="rounded=0;whiteSpace=wrap;html=1;shadow=0;labelBackgroundColor=none;fontColor=#000000;strokeColor=#000000;fillColor=none;" vertex="1" parent="1">
                    <mxGeometry x="1250" y="453.46000000000004" width="270" height="50" as="geometry"/>
                </mxCell>
                <mxCell id="182" value="" style="group" vertex="1" connectable="0" parent="1">
                    <mxGeometry x="1240" y="475.53999999999996" width="280" height="40" as="geometry"/>
                </mxCell>
                <mxCell id="183" value="" style="group" vertex="1" connectable="0" parent="182">
                    <mxGeometry x="20" y="-17.08" width="240" height="49.99999999999994" as="geometry"/>
                </mxCell>
                <mxCell id="184" value="G" style="ellipse;whiteSpace=wrap;html=1;aspect=fixed;fillColor=#66FFFF;" vertex="1" parent="183">
                    <mxGeometry x="200" width="40" height="40" as="geometry"/>
                </mxCell>
                <mxCell id="185" value="G" style="ellipse;whiteSpace=wrap;html=1;aspect=fixed;fillColor=#66FFFF;" vertex="1" parent="183">
                    <mxGeometry x="160" width="40" height="40" as="geometry"/>
                </mxCell>
                <mxCell id="186" value="G" style="ellipse;whiteSpace=wrap;html=1;aspect=fixed;fillColor=#00CC00;" vertex="1" parent="183">
                    <mxGeometry x="80" width="40" height="40" as="geometry"/>
                </mxCell>
                <mxCell id="187" value="G" style="ellipse;whiteSpace=wrap;html=1;aspect=fixed;fillColor=#66FFFF;" vertex="1" parent="183">
                    <mxGeometry x="120" width="40" height="40" as="geometry"/>
                </mxCell>
                <mxCell id="188" value="G" style="ellipse;whiteSpace=wrap;html=1;aspect=fixed;fillColor=#00CC00;" vertex="1" parent="183">
                    <mxGeometry x="40" width="40" height="40" as="geometry"/>
                </mxCell>
                <mxCell id="189" value="G" style="ellipse;whiteSpace=wrap;html=1;aspect=fixed;fillColor=#00CC00;" vertex="1" parent="183">
                    <mxGeometry width="40" height="40" as="geometry"/>
                </mxCell>
                <mxCell id="190" value="" style="rounded=1;whiteSpace=wrap;html=1;shadow=0;labelBackgroundColor=none;fontSize=12;fillColor=none;dashed=1;strokeColor=#FF3333;glass=0;" vertex="1" parent="183">
                    <mxGeometry x="120" y="-10.000000000000057" width="120" height="60" as="geometry"/>
                </mxCell>
                <mxCell id="191" value="" style="group;shadow=0;strokeColor=#000000;rotation=90;" vertex="1" connectable="0" parent="1">
                    <mxGeometry x="1359.46" y="424" width="50" height="274.34" as="geometry"/>
                </mxCell>
                <mxCell id="192" value="窃取p.runq" style="text;html=1;strokeColor=none;fillColor=none;align=center;verticalAlign=middle;whiteSpace=wrap;rounded=0;shadow=0;labelBackgroundColor=none;fontSize=12;fontColor=#000000;" vertex="1" parent="1">
                    <mxGeometry x="1170" y="463.46000000000004" width="70" height="27.08" as="geometry"/>
                </mxCell>
                <mxCell id="193" value="当前p.runq" style="text;html=1;strokeColor=none;fillColor=none;align=center;verticalAlign=middle;whiteSpace=wrap;rounded=0;shadow=0;labelBackgroundColor=none;fontSize=12;fontColor=#000000;" vertex="1" parent="1">
                    <mxGeometry x="1170" y="547" width="70" height="27.08" as="geometry"/>
                </mxCell>
                <mxCell id="194" value="G" style="ellipse;whiteSpace=wrap;html=1;aspect=fixed;fillColor=#66FFFF;" vertex="1" parent="1">
                    <mxGeometry x="1270" y="540.54" width="40" height="40" as="geometry"/>
                </mxCell>
                <mxCell id="195" value="G" style="ellipse;whiteSpace=wrap;html=1;aspect=fixed;fillColor=#66FFFF;" vertex="1" parent="1">
                    <mxGeometry x="1310" y="540.54" width="40" height="40" as="geometry"/>
                </mxCell>
                <mxCell id="196" value="G" style="ellipse;whiteSpace=wrap;html=1;aspect=fixed;fillColor=#66FFFF;" vertex="1" parent="1">
                    <mxGeometry x="1350" y="540.54" width="40" height="40" as="geometry"/>
                </mxCell>
                <mxCell id="197" value="" style="rounded=1;whiteSpace=wrap;html=1;shadow=0;labelBackgroundColor=none;fontSize=12;fillColor=none;dashed=1;strokeColor=#FF3333;glass=0;" vertex="1" parent="1">
                    <mxGeometry x="1270" y="530.54" width="120" height="60" as="geometry"/>
                </mxCell>
                <mxCell id="198" style="edgeStyle=none;html=1;exitX=0.5;exitY=1;exitDx=0;exitDy=0;entryX=0.5;entryY=0;entryDx=0;entryDy=0;fontSize=12;fontColor=#000000;strokeColor=#FF3333;" edge="1" source="190" target="197" parent="1">
                    <mxGeometry relative="1" as="geometry"/>
                </mxCell>
                <mxCell id="199" value="stealWork()选择出窃取的p" style="text;html=1;strokeColor=none;fillColor=none;align=center;verticalAlign=middle;whiteSpace=wrap;rounded=0;shadow=0;glass=0;dashed=1;labelBackgroundColor=none;fontSize=12;fontColor=#000000;" vertex="1" parent="1">
                    <mxGeometry x="1532" y="463.46" width="91" height="28.54" as="geometry"/>
                </mxCell>
                <mxCell id="200" value="runqsteal()-&amp;gt;runqgrab()执行窃取" style="text;html=1;strokeColor=none;fillColor=none;align=center;verticalAlign=middle;whiteSpace=wrap;rounded=0;shadow=0;glass=0;dashed=1;labelBackgroundColor=none;fontSize=12;fontColor=#000000;" vertex="1" parent="1">
                    <mxGeometry x="1520" y="550.54" width="135" height="30" as="geometry"/>
                </mxCell>
            </root>
        </mxGraphModel>
    </diagram>
</mxfile>